<svg id="Capa_1" data-name="Capa 1" xmlns="http://www.w3.org/2000/svg" viewBox="0 0 7.34 6.46"><defs><style>.cls-1{fill:#f0c414;}.cls-2{fill:#f0c413;}.cls-3{fill:#f1c516;}</style></defs><title>collar</title><path class="cls-1" d="M862.78,624.41s0,0,0,0a6,6,0,0,0,2.79.83c.21,0,.3.08.28.31s0,.56,0,.83a.46.46,0,0,1-.5.45,5.94,5.94,0,0,1-1.44-.29,2.12,2.12,0,0,1-1.13-.74h0Z" transform="translate(-862.78 -622.92)"/><path class="cls-1" d="M870.12,625.78h0a2.83,2.83,0,0,1-1.84.93,5.67,5.67,0,0,1-.72.1.44.44,0,0,1-.52-.44v0a2.4,2.4,0,0,1,0-1c.16-.3.6-.15.91-.2a6,6,0,0,0,2.13-.77s0,0,0,0Z" transform="translate(-862.78 -622.92)"/><path class="cls-2" d="M866.48,622.92a8.14,8.14,0,0,1,2.59.39c.38.13.92.27.92.67s-.56.43-.89.6-.77,0-1.14-.07a9.68,9.68,0,0,0-3.56.11,2.08,2.08,0,0,1-1.45-.55c-.14-.2,0-.28.15-.37a3.47,3.47,0,0,1,1.63-.62A8.51,8.51,0,0,1,866.48,622.92Z" transform="translate(-862.78 -622.92)"/><path class="cls-3" d="M867.27,629.38a.39.39,0,0,1-.28-.09.77.77,0,0,0-1.06,0,.49.49,0,0,1-.53,0c-.17-.11-.36-.29-.25-.47a.42.42,0,0,0,0-.5c-.12-.18.07-.38.25-.49a.47.47,0,0,1,.58,0c.09.07.18.25.29.12s0-.25-.13-.35a.53.53,0,0,1-.15-.82.69.69,0,0,0,.17-.56c0-.29,0-.58,0-.88s.11-.29.32-.29.28.1.27.29,0,.57,0,.85a.76.76,0,0,0,.18.59.55.55,0,0,1-.15.83c-.14.09-.26.2-.14.34s.2,0,.29-.11a.47.47,0,0,1,.58-.07c.2.13.39.35.24.56a.33.33,0,0,0,0,.39C867.91,629.07,867.57,629.38,867.27,629.38Zm-.84-.61c.27,0,.57,0,.72.27.05.09.18.06.26,0s.11-.19,0-.26-.15-.23,0-.37,0-.18,0-.26-.21-.1-.26,0c-.22.41-1.3.33-1.34,0,0-.1-.13-.12-.22-.08a.21.21,0,0,0-.06.37c.11.11.11.18,0,.29a.17.17,0,0,0,0,.28c.09.09.23.1.28,0C865.93,628.73,866.43,628.77,866.43,628.77Zm0-1.74c-.13,0-.3,0-.29.17a.26.26,0,0,0,.29.26.27.27,0,0,0,.27-.28C866.74,627,866.58,627,866.47,627Z" transform="translate(-862.78 -622.92)"/></svg>