<svg id="Capa_1" data-name="Capa 1" xmlns="http://www.w3.org/2000/svg" viewBox="0 0 188.05 92.11"><defs><style>.cls-1{font-size:27.34px;font-family:Rondalo, Rondalo;}.cls-1,.cls-4,.cls-7{fill:#f1c40f;}.cls-2{writing-mode:tb;text-orientation:upright;glyph-orientation-vertical:0deg;}.cls-3,.cls-6{fill:none;}.cls-3{stroke:#f1c40f;stroke-width:5.17px;}.cls-3,.cls-6,.cls-7{stroke-miterlimit:10;}.cls-5{fill:#fff;}.cls-6,.cls-7{stroke:#000;}.cls-6{stroke-width:1.72px;}.cls-7{stroke-width:1.44px;}</style></defs><title>logo</title><text class="cls-1" transform="translate(74.24 84.21)">A d o P E T</text><text class="cls-2" x="-861.72" y="-487.81"></text><path class="cls-3" d="M914,490.4a27.4,27.4,0,1,0,27.4,27.4A27.4,27.4,0,0,0,914,490.4Zm-.38,52.12a25.1,25.1,0,1,1,25.1-25.1A25.1,25.1,0,0,1,913.59,542.52Z" transform="translate(-861.72 -487.81)"/><path class="cls-4" d="M889.18,537.11l-3,1.91a3.33,3.33,0,0,0-.28,5.42l5.31,4.23a3.34,3.34,0,0,0,5-1l1.67-3a3.34,3.34,0,0,0-.83-4.21c-1.3-1.05-2.86-2.26-4.07-3.17A3.31,3.31,0,0,0,889.18,537.11Z" transform="translate(-861.72 -487.81)"/><path class="cls-4" d="M870.39,554.16A57,57,0,0,0,862,569.07c-1,2.61,1.36,5.13,4.31,4.61a6.8,6.8,0,0,0,1.88-.71,67.35,67.35,0,0,0,11.63-7.26A61.29,61.29,0,0,0,890,555.55a3.33,3.33,0,0,0-.56-4.66l-6.64-5.3a3.34,3.34,0,0,0-4.28.09A61.28,61.28,0,0,0,870.39,554.16Z" transform="translate(-861.72 -487.81)"/><circle class="cls-5" cx="913.59" cy="517.42" r="25.1" transform="translate(-956.16 -264.07) rotate(-13.28)"/><path class="cls-6" d="M930.26,523.59c-.44,6.81-9.29,8-13.56,4.22a3.31,3.31,0,0,0-4.5,0c-4.81,4.71-14.34,1.23-13.55-4.2" transform="translate(-861.72 -487.81)"/><path class="cls-7" d="M919.79,517.88c-.17,3.15-2.43,5.71-5.42,5.71a5.56,5.56,0,0,1-5.41-5.71c0-2.76,1.25-5.28,4.1-4.14a3.47,3.47,0,0,0,2.61.06C918.31,512.72,920,514,919.79,517.88Z" transform="translate(-861.72 -487.81)"/><circle cx="43.03" cy="36.11" r="0.68"/><circle cx="45.06" cy="33.21" r="0.68"/><circle cx="40.94" cy="33.21" r="0.68"/><circle cx="61.82" cy="36.79" r="0.68"/><circle cx="63.85" cy="33.89" r="0.68"/><circle cx="59.73" cy="33.89" r="0.68"/><ellipse cx="43.7" cy="19.53" rx="1.91" ry="3.8"/><ellipse cx="61.62" cy="19.53" rx="1.91" ry="3.8"/></svg>