<svg id="Capa_1" data-name="Capa 1" xmlns="http://www.w3.org/2000/svg" viewBox="0 0 103.15 101.71"><defs><style>.cls-1{fill:#f0c414;}.cls-2{fill:none;stroke:#f0c414;stroke-miterlimit:10;stroke-width:5.21px;}</style></defs><title>profile</title><path class="cls-1" d="M918.13,534.88h16c.32,1,1.23.88,2,1.06,12.14,2.66,21.87,9,29.67,18.71,5.34,6.62,7.62,14.48,10.32,22.23v17c-1.57,1.09-1.34,3-1.8,4.45q-7.2,23.68-30,33.26c-3.29,1.38-6.81,2.21-10.22,3.29h-17a6.25,6.25,0,0,0-1.58-1c-19.79-5.09-32.27-17.59-37.93-37.11-.3-1-.06-2.44-1.49-2.93v-18c1.62-.8,1.42-2.52,1.81-3.85,5-17.2,16.19-28.55,32.9-34.69C913.25,536.45,916.05,536.73,918.13,534.88ZM880.61,587.7c-.06,8.06,3.46,18.18,11.07,26.83,1.19,1.35,2,2.2,4.08,1.19,4-2,8.24-3.54,12.39-5.21,8-3.23,8.91-7.1,4.94-14.65-2.47-4.71-7.44-8.71-6.47-14.66a35.91,35.91,0,0,0-.17-10.81c-1.89-14.18,8.21-25,22-22,11.82,2.56,19.37,7.12,17.78,21.29-.46,4.05-1.75,8.05-.37,12.27a5.89,5.89,0,0,1-1.11,4.71c-2.66,3.28-3.87,7.32-6.24,10.73-3.24,4.67-2,9.49,3.14,11.94,3.29,1.57,6.79,2.71,10.18,4.07,8.22,3.29,8.38,3.24,13.2-4.56.26-.43.52-.85.77-1.29,9.68-17,7.61-36.89-5.44-52.47-11.79-14.07-32-19.41-49.46-13.09C892.87,548.46,880.89,565.23,880.61,587.7Z" transform="translate(-874.95 -534.02)"/><ellipse class="cls-2" cx="51.57" cy="50.85" rx="48.97" ry="48.25"/></svg>